<svg width="45" height="45" viewBox="0 0 45 45" fill="none" xmlns="http://www.w3.org/2000/svg">
<g clip-path="url(#clip0_43_107)">
<path d="M19.8756 36.3767H18.7255H13.0545H11.5924C11.2277 36.3767 10.932 36.6723 10.932 37.0371C10.932 37.4019 11.2277 37.6975 11.5924 37.6975H12.3941V44.3056C12.3941 44.5262 12.5041 44.7321 12.6875 44.8546C12.871 44.9771 13.1033 45.0001 13.3071 44.9157L15.89 43.8467L18.473 44.9157C18.5543 44.9494 18.64 44.9659 18.7255 44.9659C18.8543 44.9659 18.9824 44.9282 19.0925 44.8545C19.2759 44.732 19.386 44.5261 19.386 44.3055V37.6974H19.8757C20.2404 37.6974 20.5361 37.4018 20.5361 37.037C20.5361 36.6722 20.2403 36.3767 19.8756 36.3767ZM18.0652 43.3176L16.1427 42.5218C16.0618 42.4884 15.976 42.4717 15.8901 42.4717C15.8043 42.4717 15.7184 42.4884 15.6376 42.5218L13.715 43.3176V37.6975H18.0653V43.3176H18.0652Z" fill="white"/>
<path d="M14.1971 25.7621C13.8324 25.7621 13.5367 26.0577 13.5367 26.4225C13.5367 26.7873 13.8324 27.0829 14.1971 27.0829H23.5828C23.9476 27.0829 24.2432 26.7873 24.2432 26.4225C24.2432 26.0577 23.9476 25.7621 23.5828 25.7621H14.1971Z" fill="white"/>
<path d="M25.8575 30.3175C26.0407 30.4401 26.2731 30.4629 26.477 30.3786L29.0599 29.3095L31.6429 30.3786C31.7242 30.4122 31.8099 30.4288 31.8953 30.4288C32.0242 30.4288 32.1522 30.3911 32.2624 30.3174C32.4458 30.1948 32.5558 29.989 32.5558 29.7684V23.1603H33.3575C33.7223 23.1603 34.0179 22.8647 34.0179 22.4999C34.0179 22.1351 33.7223 21.8395 33.3575 21.8395H31.8954H26.2245H25.0744C24.7096 21.8395 24.414 22.1351 24.414 22.4999C24.414 22.8647 24.7096 23.1603 25.0744 23.1603H25.5641V29.7684C25.5641 29.989 25.6741 30.195 25.8575 30.3175ZM31.235 23.1604V28.7804L29.3125 27.9847C29.2316 27.9512 29.1457 27.9345 29.0599 27.9345C28.9742 27.9345 28.8882 27.9512 28.8074 27.9847L26.8849 28.7804V23.1604H31.235Z" fill="white"/>
<path d="M43.6843 4.70078C44.4098 4.70078 45 4.11056 45 3.38509V1.34966C45 0.624277 44.4098 0.0340576 43.6843 0.0340576H7.99556C3.62356 0.0340576 0.0666561 3.59096 0.0666561 7.96296C0.0666561 10.7183 1.47973 13.1495 3.61889 14.5711H1.33224C0.606773 14.5711 0.016554 15.1613 0.016554 15.8868V17.9222C0.016554 18.6476 0.606773 19.2378 1.33224 19.2378H2.61588V25.7621H1.33224C0.606773 25.7621 0.016554 26.3523 0.016554 27.0778V29.1131C0.016554 29.8386 0.606773 30.4288 1.33224 30.4288H3.55223C1.41307 31.8504 0 34.2816 0 37.0371C0 41.4091 3.5569 44.966 7.92891 44.966H10.4129C10.7776 44.966 11.0733 44.6704 11.0733 44.3056C11.0733 43.9408 10.7776 43.6452 10.4129 43.6452H7.92891C4.28519 43.6452 1.32079 40.6808 1.32079 37.0371C1.32079 33.3933 4.28519 30.4289 7.92891 30.4289H21.9729H23.5828C23.9476 30.4289 24.2432 30.1333 24.2432 29.7685C24.2432 29.4037 23.9476 29.1081 23.5828 29.1081L21.9801 29.1084C21.9777 29.1084 21.9754 29.1081 21.9729 29.1081H7.92891C7.85151 29.1081 7.77446 29.1095 7.69759 29.1117L1.33726 29.1132L1.33215 27.0829H11.3827C11.7474 27.0829 12.0431 26.7873 12.0431 26.4225C12.0431 26.0577 11.7474 25.7621 11.3827 25.7621H3.93667V19.2378H36.9514C37.8437 19.2378 38.717 19.6056 39.3474 20.2468C39.9653 20.8754 40.2974 21.6958 40.2826 22.5568C40.2524 24.3242 38.7892 25.762 37.0211 25.762H34.537C34.1722 25.762 33.8766 26.0576 33.8766 26.4224C33.8766 26.7872 34.1722 27.0828 34.537 27.0828H37.0211C39.5051 27.0828 41.5607 25.0626 41.6033 22.5793C41.6241 21.3613 41.1575 20.204 40.2892 19.3208C39.4122 18.4286 38.1956 17.9169 36.9514 17.9169L3.35341 17.9218C3.32805 17.9188 3.30243 17.9169 3.27636 17.9169C3.25021 17.9169 3.2245 17.9188 3.19914 17.9218L1.33744 17.9221L1.33224 15.8918H7.99547H8.17237H10.4795C10.8443 15.8918 11.1399 15.5962 11.1399 15.2314C11.1399 14.8666 10.8443 14.571 10.4795 14.571H8.17246H7.99556C4.35184 14.571 1.38745 11.6066 1.38745 7.96288C1.38745 4.31916 4.35184 1.35476 7.99556 1.35476L43.6792 1.34957L43.6843 3.37998H38.7231C38.3583 3.37998 38.0627 3.67558 38.0627 4.04038C38.0627 4.40518 38.3583 4.70078 38.7231 4.70078H41.1829V11.225H21.4338C21.0691 11.225 20.7734 11.5206 20.7734 11.8854C20.7734 12.2502 21.0691 12.5458 21.4338 12.5458L41.7677 12.5411C41.7925 12.5439 41.8177 12.5458 41.8432 12.5458C41.8689 12.5458 41.8941 12.5439 41.919 12.5411L43.6792 12.5407L43.6843 14.571H37.0211H24.7677H21.4338C21.0691 14.571 20.7734 14.8666 20.7734 15.2314C20.7734 15.5962 21.0691 15.8918 21.4338 15.8918H24.7677H37.0211C40.6648 15.8918 43.6292 18.8562 43.6292 22.5C43.6292 26.1437 40.6648 29.1081 37.0211 29.1081H36.3631H34.537C34.1722 29.1081 33.8766 29.4037 33.8766 29.7685C33.8766 30.1333 34.1722 30.4289 34.537 30.4289H37.0211C37.0339 30.4289 37.0466 30.4284 37.0595 30.4284L43.6127 30.4238L43.6178 32.4541H7.99856C6.75437 32.4541 5.53783 32.9659 4.66073 33.858C3.79253 34.7413 3.32585 35.8986 3.34672 37.1166C3.38925 39.5997 5.44484 41.62 7.92899 41.62H10.413C10.7777 41.62 11.0734 41.3244 11.0734 40.9596C11.0734 40.5948 10.7777 40.2992 10.413 40.2992H7.92899C6.1608 40.2992 4.69763 38.8614 4.66734 37.094C4.65254 36.233 4.98468 35.4126 5.60263 34.7841C6.23301 34.1428 7.10632 33.775 7.99856 33.775H41.0133V40.2993H21.3672C21.0025 40.2993 20.7068 40.5949 20.7068 40.9597C20.7068 41.3245 21.0025 41.6201 21.3672 41.6201L43.6127 41.615L43.6178 43.6453H21.3672C21.0025 43.6453 20.7068 43.9409 20.7068 44.3057C20.7068 44.6705 21.0025 44.9661 21.3672 44.9661H43.6177C44.3432 44.9661 44.9334 44.3759 44.9334 43.6504V41.6151C44.9334 40.8896 44.3432 40.2994 43.6177 40.2994H42.3341V33.7751H43.6177C44.3432 33.7751 44.9334 33.1849 44.9334 32.4594V30.424C44.9334 29.6986 44.3432 29.1084 43.6177 29.1084H41.3978C43.5369 27.6868 44.95 25.2557 44.95 22.5002C44.95 19.7448 43.5369 17.3136 41.3978 15.892H43.6843C44.4098 15.892 45 15.3018 45 14.5764V12.541C45 11.8155 44.4098 11.2253 43.6843 11.2253H42.5037V4.70078H43.6843Z" fill="white"/>
<path d="M36.5692 4.0404C36.5692 3.6756 36.2736 3.38 35.9088 3.38H8.06512C6.82093 3.38 5.60431 3.89177 4.7273 4.78392C3.8591 5.66709 3.39242 6.82437 3.41328 8.0425C3.45581 10.5256 5.51141 12.5458 7.99556 12.5458H10.4795C10.8442 12.5458 11.1399 12.2502 11.1399 11.8854C11.1399 11.5206 10.8442 11.225 10.4795 11.225H7.99556C6.22737 11.225 4.76419 9.78718 4.7339 8.01987C4.71911 7.15889 5.05125 6.3385 5.6692 5.70997C6.29957 5.06868 7.17288 4.70089 8.06512 4.70089H35.9088C36.2736 4.7008 36.5692 4.40521 36.5692 4.0404Z" fill="white"/>
<path d="M12.7542 15.7805C12.9376 15.9032 13.17 15.926 13.3737 15.8416L15.9567 14.7726L18.5396 15.8416C18.6209 15.8752 18.7067 15.8918 18.7922 15.8918C18.921 15.8918 19.049 15.8541 19.1592 15.7804C19.3426 15.6578 19.4527 15.452 19.4527 15.2314V8.62328H19.9423C20.307 8.62328 20.6027 8.32769 20.6027 7.96289C20.6027 7.59808 20.307 7.30249 19.9423 7.30249H18.7923H13.1212H11.6591C11.2944 7.30249 10.9987 7.59808 10.9987 7.96289C10.9987 8.32769 11.2944 8.62328 11.6591 8.62328H12.4607V15.2314C12.4607 15.452 12.5708 15.6579 12.7542 15.7805ZM18.1318 8.62328V14.2434L16.2092 13.4476C16.1284 13.4142 16.0425 13.3974 15.9567 13.3974C15.8708 13.3974 15.785 13.4142 15.7042 13.4476L13.7816 14.2434V8.62328H18.1318Z" fill="white"/>
</g>
<defs>
<clipPath id="clip0_43_107">
<rect width="45" height="45" fill="white"/>
</clipPath>
</defs>
</svg>
