<svg width="45" height="45" viewBox="0 0 45 45" fill="none" xmlns="http://www.w3.org/2000/svg">
<g clip-path="url(#clip0_43_165)">
<path d="M43.5375 25.5H42.75V15.4672C42.75 14.3827 41.8672 13.5 40.7827 13.5H17.6955C17.1667 13.5 16.6537 13.7167 16.2892 14.0947C15.924 14.472 15.7327 14.9685 15.75 15.4672V25.5H15C14.187 25.5 13.5 26.1592 13.5 26.94V39.75V41.25V43.0583C11.304 42.1657 9.75 40.0125 9.75 37.5V36.75H9V12H16.5V0H0V12H4.5V16.5C4.5 16.9147 4.83525 17.25 5.25 17.25C5.66475 17.25 6 16.9147 6 16.5V12H7.5V36.75H6.75V37.5C6.75 40.8083 4.05825 43.5 0.75 43.5C0.33525 43.5 0 43.8353 0 44.25C0 44.6647 0.33525 45 0.75 45H13.5H15.75H18V41.25H40.5V45H45V41.25V39.75V26.94C45 26.1457 44.3438 25.5 43.5375 25.5ZM1.5 1.5H15V10.5H1.5V1.5ZM17.2493 15.4418C17.2448 15.2963 17.3108 15.1958 17.367 15.1373C17.4533 15.048 17.5695 15 17.6955 15H40.7827C41.0407 15 41.25 15.2092 41.25 15.4672V25.5H39.6675C38.8725 25.5 38.25 26.133 38.25 26.94V29.25H20.25V27C20.25 26.2013 19.5487 25.5 18.75 25.5H17.25L17.2493 15.4418ZM20.25 30.75H38.25V33.75H20.25V30.75ZM5.2455 43.5C6.8805 42.2715 7.99875 40.392 8.2125 38.25H8.2875C8.50125 40.392 9.6195 42.2715 11.2545 43.5H5.2455ZM16.5 43.5H15.75C15.4958 43.5 15.246 43.479 15 43.4482V41.25H16.5V43.5ZM43.5 43.5H42V41.25H43.5V43.5ZM40.5 39.75H18H15V27H15.75L18.75 27.036V29.25V35.25H39.75V29.25V27H42.75H43.5V39.75H40.5Z" fill="white"/>
</g>
<defs>
<clipPath id="clip0_43_165">
<rect width="45" height="45" fill="white"/>
</clipPath>
</defs>
</svg>
