<svg width="100" height="100" viewBox="0 0 100 100" fill="none" xmlns="http://www.w3.org/2000/svg">
<g clip-path="url(#clip0_13_92)">
<path d="M100 0H0V100H100V0Z" fill="#243878"/>
<path d="M53.575 11.485H46.44" stroke="white" stroke-width="2" stroke-miterlimit="10"/>
<path d="M44.985 70.635C45.69 70.93 46.395 71.22 47.1 71.515C47.12 51.505 47.14 31.495 47.16 11.485" stroke="white" stroke-width="2" stroke-miterlimit="10"/>
<path d="M27.19 20.09V40.185" stroke="white" stroke-width="2" stroke-miterlimit="10"/>
<path d="M47.335 25.065C46.145 23.865 42.815 20.83 37.47 19.775C32.38 18.77 28.325 20.13 26.735 20.76" stroke="white" stroke-width="2" stroke-miterlimit="10"/>
<path d="M46.735 66.92H46.465" stroke="white" stroke-width="2" stroke-miterlimit="10"/>
<path d="M47.16 69.985C46.4 66.78 44.975 62.15 42.135 57.095C38.415 50.47 34.12 46.42 30.62 43.175C27.11 39.92 21.725 35.56 14.255 31.675" stroke="white" stroke-width="2" stroke-miterlimit="10"/>
<path d="M10.185 35.045C16.365 37.495 26.92 42.67 36.27 53.22C41.625 59.26 45.015 65.29 47.155 69.985" stroke="white" stroke-width="2" stroke-miterlimit="10"/>
<path d="M11.005 34.83C7.8 38.96 4.6 43.09 1.395 47.225L3.27 47.49" stroke="white" stroke-width="2" stroke-miterlimit="10"/>
<path d="M47.16 69.985C45.63 68.42 43.525 66.4 40.875 64.215C33.065 57.785 25.92 54.415 23.46 53.31C14.915 49.47 7.045 47.89 1.175 47.225" stroke="white" stroke-width="2" stroke-miterlimit="10"/>
<path d="M8.61 48.28C7.355 51.77 6.185 56 5.54 60.875C5.27 62.93 5.12 64.875 5.055 66.695C5.575 66.465 6.1 66.235 6.62 66.005" stroke="white" stroke-width="2" stroke-miterlimit="10"/>
<path d="M4.78 66.515C9.335 65.16 15.385 63.985 22.465 64.215C30.2 64.47 36.035 66.305 39.335 67.37C42.555 68.41 45.205 69.53 47.155 70.435" stroke="white" stroke-width="2" stroke-miterlimit="10"/>
<path d="M47.16 70.435C45.915 70.17 44.09 69.805 41.88 69.445C36.73 68.61 28.94 67.385 19.565 68.11C14.795 68.48 7.965 69.48 0.00499725 72.325" stroke="white" stroke-width="2" stroke-miterlimit="10"/>
<path d="M45.455 70.835C43.675 70.7 41.275 70.56 38.435 70.525C35.675 70.49 31.42 70.455 26.165 71.065C20.37 71.74 16.1 72.89 12.54 73.86C9.175 74.78 4.88 76.12 0 78.095" stroke="white" stroke-width="2" stroke-miterlimit="10"/>
<path d="M52.93 71.515C52.795 71.69 51.875 72.865 50.255 72.955C48.385 73.065 47.25 71.635 47.155 71.515" stroke="white" stroke-width="2" stroke-miterlimit="10"/>
<path d="M55.015 70.635C54.31 70.93 53.605 71.22 52.9 71.515C52.88 51.505 52.86 31.495 52.84 11.485" stroke="white" stroke-width="2" stroke-miterlimit="10"/>
<path d="M72.81 20.09V40.185" stroke="white" stroke-width="2" stroke-miterlimit="10"/>
<path d="M52.665 25.065C53.855 23.865 57.185 20.825 62.53 19.775C67.585 18.78 71.62 20.12 73.21 20.75" stroke="white" stroke-width="2" stroke-miterlimit="10"/>
<path d="M52.84 69.985C53.6 66.78 55.025 62.15 57.865 57.095C61.585 50.47 65.88 46.42 69.38 43.175C72.89 39.92 78.275 35.56 85.745 31.675" stroke="white" stroke-width="2" stroke-miterlimit="10"/>
<path d="M89.82 35.085C83.65 37.515 73.085 42.675 63.73 53.22C58.37 59.26 54.98 65.29 52.845 69.985" stroke="white" stroke-width="2" stroke-miterlimit="10"/>
<path d="M88.995 34.83C92.2 38.96 95.4 43.09 98.605 47.225L96.73 47.49" stroke="white" stroke-width="2" stroke-miterlimit="10"/>
<path d="M52.84 69.985C54.37 68.42 56.475 66.4 59.125 64.215C66.935 57.785 74.08 54.415 76.54 53.31C85.085 49.47 92.955 47.89 98.825 47.225" stroke="white" stroke-width="2" stroke-miterlimit="10"/>
<path d="M91.39 48.28C92.645 51.77 93.815 56 94.46 60.875C94.73 62.93 94.88 64.875 94.945 66.695C94.425 66.465 93.9 66.235 93.38 66.005" stroke="white" stroke-width="2" stroke-miterlimit="10"/>
<path d="M95.22 66.515C90.665 65.16 84.615 63.985 77.535 64.215C69.8 64.47 63.965 66.305 60.665 67.37C57.445 68.41 54.795 69.53 52.845 70.435" stroke="white" stroke-width="2" stroke-miterlimit="10"/>
<path d="M52.84 70.435C54.085 70.17 55.91 69.805 58.12 69.445C63.27 68.61 71.06 67.385 80.435 68.11C85.205 68.48 92.035 69.48 99.995 72.325" stroke="white" stroke-width="2" stroke-miterlimit="10"/>
<path d="M54.355 70.91C55.96 70.85 58.28 70.785 61.08 70.765C66.785 70.725 70.06 70.7 73.835 71.065C79.13 71.58 82.955 72.625 87.46 73.86C90.86 74.79 95.145 76.135 100 78.095" stroke="white" stroke-width="2" stroke-miterlimit="10"/>
<path d="M15.63 88.405C15.505 88.405 15.4 88.355 15.315 88.26C15.23 88.16 15.19 88.04 15.19 87.895V80.465C15.19 80.315 15.23 80.19 15.315 80.095C15.4 80 15.505 79.955 15.63 79.955C15.76 79.955 15.865 80 15.95 80.095C16.03 80.19 16.07 80.31 16.07 80.465V83.675H17.585V84.575H16.07V87.895C16.07 88.04 16.03 88.16 15.95 88.26C15.87 88.355 15.765 88.405 15.63 88.405ZM20.455 88.275C20.38 88.37 20.275 88.415 20.14 88.41C20.005 88.41 19.9 88.355 19.825 88.255L16.765 84.1L19.6 80.12C19.68 80.01 19.785 79.955 19.91 79.95C20.035 79.945 20.14 79.995 20.22 80.095C20.3 80.205 20.34 80.315 20.335 80.425C20.33 80.535 20.29 80.645 20.21 80.755L17.825 84.045L20.475 87.605C20.55 87.715 20.59 87.825 20.59 87.94C20.59 88.055 20.55 88.165 20.455 88.275Z" fill="white"/>
<path d="M22.205 88.405C22.08 88.405 21.98 88.36 21.9 88.265C21.82 88.17 21.785 88.05 21.785 87.91V82.99C21.785 82.84 21.825 82.72 21.9 82.625C21.98 82.535 22.08 82.49 22.205 82.49C22.33 82.49 22.435 82.535 22.515 82.625C22.595 82.715 22.635 82.835 22.635 82.99V87.91C22.635 88.055 22.595 88.175 22.515 88.265C22.435 88.36 22.33 88.405 22.205 88.405ZM22.515 85.81V84.925H25.95V85.81H22.515ZM26.115 88.405C25.99 88.405 25.885 88.36 25.805 88.265C25.725 88.17 25.685 88.05 25.685 87.91V82.99C25.685 82.84 25.725 82.72 25.805 82.625C25.885 82.535 25.99 82.49 26.115 82.49C26.245 82.49 26.35 82.535 26.42 82.625C26.49 82.715 26.525 82.835 26.525 82.99V87.91C26.525 88.055 26.49 88.175 26.42 88.265C26.35 88.36 26.245 88.405 26.115 88.405Z" fill="white"/>
<path d="M30.395 88.46C29.96 88.46 29.57 88.355 29.225 88.14C28.88 87.925 28.61 87.615 28.41 87.205C28.21 86.795 28.11 86.295 28.11 85.7V82.975C28.11 82.84 28.15 82.72 28.235 82.625C28.32 82.53 28.42 82.48 28.54 82.48C28.665 82.48 28.77 82.53 28.855 82.625C28.94 82.72 28.98 82.84 28.98 82.975V85.7C28.98 86.12 29.05 86.465 29.185 86.74C29.32 87.015 29.51 87.215 29.74 87.35C29.975 87.485 30.24 87.55 30.53 87.55C30.82 87.55 31.07 87.485 31.295 87.355C31.515 87.225 31.695 87.05 31.83 86.83C31.965 86.61 32.03 86.365 32.03 86.09H32.59C32.575 86.535 32.475 86.94 32.285 87.3C32.095 87.66 31.835 87.945 31.505 88.15C31.175 88.355 30.805 88.46 30.39 88.46H30.395ZM32.465 88.405C32.34 88.405 32.235 88.36 32.155 88.265C32.075 88.17 32.035 88.05 32.035 87.91V82.98C32.035 82.835 32.075 82.715 32.155 82.625C32.235 82.53 32.34 82.485 32.465 82.485C32.59 82.485 32.695 82.53 32.775 82.625C32.855 82.72 32.895 82.84 32.895 82.98V87.91C32.895 88.055 32.855 88.175 32.775 88.265C32.695 88.36 32.59 88.405 32.465 88.405Z" fill="white"/>
<path d="M36.155 88.45C35.775 88.45 35.435 88.385 35.13 88.25C34.825 88.115 34.585 87.925 34.41 87.675C34.23 87.425 34.145 87.14 34.145 86.815C34.145 86.51 34.22 86.245 34.37 86.02C34.52 85.795 34.74 85.595 35.035 85.43C35.33 85.265 35.695 85.13 36.14 85.03C36.56 84.93 36.845 84.805 36.995 84.65C37.145 84.495 37.225 84.305 37.225 84.065C37.225 83.825 37.13 83.64 36.935 83.51C36.74 83.375 36.5 83.31 36.215 83.31C35.975 83.31 35.75 83.355 35.53 83.445C35.31 83.535 35.13 83.665 34.985 83.83C34.905 83.93 34.81 83.995 34.71 84.025C34.605 84.055 34.52 84.045 34.45 83.995C34.34 83.925 34.27 83.825 34.25 83.7C34.23 83.575 34.25 83.46 34.32 83.36C34.505 83.085 34.765 82.865 35.095 82.7C35.425 82.535 35.795 82.45 36.21 82.45C36.56 82.45 36.875 82.515 37.15 82.64C37.43 82.765 37.65 82.95 37.815 83.195C37.98 83.44 38.065 83.74 38.065 84.095C38.065 84.5 37.925 84.845 37.65 85.135C37.37 85.425 36.935 85.645 36.345 85.795C35.84 85.92 35.49 86.06 35.295 86.22C35.1 86.38 35.01 86.58 35.015 86.81C35.015 87.055 35.11 87.24 35.295 87.37C35.48 87.5 35.765 87.565 36.145 87.565C36.47 87.565 36.75 87.525 36.985 87.445C37.22 87.365 37.41 87.235 37.55 87.055C37.625 86.955 37.715 86.89 37.815 86.86C37.92 86.83 38.02 86.865 38.13 86.97C38.23 87.055 38.28 87.16 38.285 87.28C38.29 87.4 38.245 87.51 38.16 87.62C37.955 87.865 37.67 88.065 37.305 88.22C36.94 88.375 36.555 88.45 36.16 88.45H36.155Z" fill="white"/>
<path d="M41.66 88.45C41.2 88.45 40.785 88.32 40.415 88.055C40.045 87.79 39.755 87.435 39.54 86.985C39.325 86.535 39.215 86.025 39.215 85.455C39.215 84.885 39.33 84.375 39.555 83.92C39.785 83.465 40.09 83.105 40.48 82.845C40.87 82.58 41.31 82.45 41.795 82.45C42.28 82.45 42.73 82.58 43.115 82.845C43.5 83.11 43.81 83.465 44.035 83.92C44.265 84.375 44.38 84.885 44.385 85.455L44.05 85.55C44.05 86.1 43.945 86.59 43.735 87.025C43.525 87.46 43.24 87.805 42.88 88.065C42.52 88.32 42.11 88.45 41.655 88.45H41.66ZM41.8 87.56C42.135 87.56 42.435 87.47 42.7 87.285C42.965 87.1 43.17 86.85 43.325 86.53C43.48 86.21 43.555 85.85 43.555 85.455C43.555 85.06 43.48 84.69 43.325 84.37C43.17 84.05 42.965 83.795 42.7 83.615C42.435 83.435 42.14 83.34 41.81 83.34C41.48 83.34 41.18 83.43 40.91 83.615C40.64 83.8 40.43 84.05 40.28 84.365C40.125 84.685 40.05 85.045 40.05 85.46C40.05 85.875 40.125 86.215 40.28 86.535C40.435 86.855 40.64 87.11 40.905 87.29C41.17 87.47 41.47 87.565 41.8 87.565V87.56ZM43.95 88.415C43.825 88.415 43.72 88.37 43.64 88.275C43.56 88.18 43.52 88.06 43.52 87.92V86.19L43.7 85.15L44.395 85.455V87.92C44.395 88.065 44.355 88.185 44.275 88.275C44.195 88.365 44.09 88.415 43.955 88.415H43.95Z" fill="white"/>
<path d="M50.72 88.515C50.39 88.515 50.06 88.465 49.73 88.37C49.4 88.275 49.1 88.13 48.835 87.95C48.57 87.765 48.375 87.55 48.25 87.305C48.23 87.18 48.225 87.06 48.225 86.93C48.225 86.8 48.27 86.705 48.365 86.635C48.46 86.565 48.555 86.54 48.66 86.565C48.765 86.59 48.85 86.66 48.92 86.775C49.1 87.015 49.35 87.21 49.67 87.37C49.99 87.53 50.34 87.61 50.72 87.61C51.055 87.61 51.355 87.54 51.61 87.405C51.865 87.27 52.07 87.075 52.22 86.82C52.37 86.57 52.445 86.27 52.445 85.935C52.445 85.46 52.31 85.08 52.045 84.805C51.775 84.53 51.43 84.39 51.005 84.39H50.395C50.29 84.39 50.2 84.35 50.13 84.265C50.06 84.185 50.025 84.08 50.025 83.955C50.025 83.82 50.06 83.705 50.13 83.62C50.2 83.535 50.29 83.49 50.395 83.49H50.89C51.225 83.49 51.51 83.365 51.74 83.11C51.97 82.855 52.085 82.515 52.085 82.08C52.085 81.645 51.95 81.3 51.68 81.085C51.41 80.87 51.06 80.76 50.635 80.76C50.325 80.76 50.035 80.83 49.765 80.965C49.495 81.1 49.27 81.305 49.08 81.57C48.995 81.705 48.895 81.795 48.79 81.84C48.685 81.885 48.575 81.86 48.47 81.775C48.39 81.71 48.335 81.615 48.305 81.495C48.28 81.37 48.295 81.255 48.355 81.15C48.59 80.775 48.9 80.465 49.27 80.22C49.645 79.975 50.095 79.85 50.625 79.85C51.08 79.85 51.48 79.945 51.825 80.135C52.17 80.325 52.44 80.58 52.635 80.905C52.83 81.23 52.93 81.59 52.93 81.99C52.93 82.3 52.875 82.58 52.76 82.835C52.65 83.085 52.505 83.3 52.33 83.48C52.155 83.66 51.97 83.79 51.77 83.885C51.57 83.98 51.39 84.03 51.225 84.035V83.72C51.41 83.725 51.625 83.775 51.86 83.86C52.095 83.945 52.325 84.08 52.54 84.26C52.755 84.44 52.935 84.675 53.075 84.96C53.215 85.245 53.285 85.585 53.285 85.98C53.285 86.455 53.175 86.885 52.95 87.265C52.73 87.645 52.425 87.95 52.035 88.175C51.65 88.4 51.21 88.51 50.715 88.51L50.72 88.515Z" fill="white"/>
<path d="M55.085 88.405C54.96 88.405 54.86 88.36 54.78 88.265C54.7 88.17 54.66 88.05 54.66 87.91V82.99C54.66 82.84 54.7 82.72 54.78 82.625C54.86 82.535 54.96 82.49 55.085 82.49C55.21 82.49 55.315 82.535 55.395 82.625C55.475 82.715 55.515 82.835 55.515 82.99V87.91C55.515 88.055 55.475 88.175 55.395 88.265C55.315 88.36 55.21 88.405 55.085 88.405ZM55.395 85.81V84.925H58.83V85.81H55.395ZM59 88.405C58.875 88.405 58.77 88.36 58.69 88.265C58.61 88.17 58.57 88.05 58.57 87.91V82.99C58.57 82.84 58.61 82.72 58.69 82.625C58.77 82.53 58.875 82.49 59 82.49C59.125 82.49 59.23 82.535 59.305 82.625C59.38 82.715 59.415 82.835 59.415 82.99V87.91C59.415 88.055 59.38 88.175 59.305 88.265C59.235 88.36 59.13 88.405 59 88.405Z" fill="white"/>
<path d="M63.275 88.45C62.815 88.45 62.4 88.32 62.03 88.055C61.66 87.79 61.37 87.435 61.155 86.985C60.94 86.535 60.83 86.025 60.83 85.455C60.83 84.885 60.945 84.375 61.17 83.92C61.4 83.465 61.705 83.105 62.095 82.845C62.485 82.58 62.925 82.45 63.41 82.45C63.895 82.45 64.34 82.58 64.73 82.845C65.115 83.11 65.425 83.465 65.65 83.92C65.88 84.375 65.995 84.885 66 85.455L65.665 85.55C65.665 86.1 65.56 86.59 65.35 87.025C65.14 87.46 64.855 87.805 64.495 88.065C64.135 88.32 63.725 88.45 63.27 88.45H63.275ZM63.415 87.56C63.75 87.56 64.05 87.47 64.315 87.285C64.58 87.1 64.785 86.85 64.935 86.53C65.09 86.21 65.165 85.85 65.165 85.455C65.165 85.06 65.09 84.69 64.935 84.37C64.78 84.05 64.575 83.795 64.315 83.615C64.055 83.435 63.755 83.34 63.425 83.34C63.095 83.34 62.795 83.43 62.525 83.615C62.255 83.8 62.045 84.05 61.895 84.365C61.74 84.685 61.665 85.045 61.665 85.46C61.665 85.875 61.74 86.215 61.895 86.535C62.05 86.855 62.255 87.11 62.52 87.29C62.785 87.47 63.085 87.565 63.415 87.565V87.56ZM65.57 88.415C65.445 88.415 65.34 88.37 65.26 88.275C65.18 88.18 65.14 88.06 65.14 87.92V86.19L65.32 85.15L66.015 85.455V87.92C66.015 88.065 65.975 88.185 65.895 88.275C65.815 88.37 65.71 88.415 65.575 88.415H65.57Z" fill="white"/>
<path d="M67.845 88.405C67.72 88.405 67.62 88.36 67.54 88.265C67.46 88.17 67.42 88.05 67.42 87.91V82.99C67.42 82.84 67.46 82.72 67.54 82.625C67.62 82.535 67.72 82.49 67.845 82.49C67.97 82.49 68.075 82.535 68.155 82.625C68.235 82.715 68.275 82.835 68.275 82.99V87.91C68.275 88.055 68.235 88.175 68.155 88.265C68.075 88.36 67.97 88.405 67.845 88.405ZM68.155 85.81V84.925H71.59V85.81H68.155ZM71.76 88.405C71.635 88.405 71.53 88.36 71.45 88.265C71.37 88.17 71.33 88.05 71.33 87.91V82.99C71.33 82.84 71.37 82.72 71.45 82.625C71.53 82.53 71.635 82.49 71.76 82.49C71.885 82.49 71.99 82.535 72.065 82.625C72.14 82.715 72.175 82.835 72.175 82.99V87.91C72.175 88.055 72.14 88.175 72.065 88.265C71.995 88.36 71.89 88.405 71.76 88.405Z" fill="white"/>
<path d="M76.035 88.46C75.6 88.46 75.21 88.355 74.865 88.14C74.52 87.925 74.25 87.615 74.05 87.205C73.85 86.795 73.75 86.295 73.75 85.7V82.975C73.75 82.84 73.79 82.72 73.875 82.625C73.96 82.53 74.06 82.48 74.18 82.48C74.305 82.48 74.41 82.53 74.495 82.625C74.58 82.72 74.62 82.84 74.62 82.975V85.7C74.62 86.12 74.69 86.465 74.825 86.74C74.96 87.015 75.15 87.215 75.38 87.35C75.615 87.485 75.88 87.55 76.17 87.55C76.46 87.55 76.71 87.485 76.935 87.355C77.155 87.225 77.335 87.05 77.47 86.83C77.605 86.61 77.67 86.365 77.67 86.09H78.23C78.215 86.535 78.115 86.94 77.925 87.3C77.735 87.66 77.475 87.945 77.145 88.15C76.815 88.355 76.445 88.46 76.03 88.46H76.035ZM78.105 88.405C77.98 88.405 77.875 88.36 77.795 88.265C77.715 88.17 77.675 88.05 77.675 87.91V82.98C77.675 82.835 77.715 82.715 77.795 82.625C77.875 82.53 77.98 82.485 78.105 82.485C78.23 82.485 78.335 82.53 78.415 82.625C78.495 82.72 78.535 82.84 78.535 82.98V87.91C78.535 88.055 78.495 88.175 78.415 88.265C78.335 88.36 78.23 88.405 78.105 88.405Z" fill="white"/>
<path d="M82.4 88.46C81.965 88.46 81.575 88.355 81.23 88.14C80.885 87.925 80.615 87.615 80.415 87.205C80.215 86.795 80.115 86.295 80.115 85.7V82.975C80.115 82.84 80.155 82.72 80.24 82.625C80.325 82.53 80.425 82.48 80.545 82.48C80.67 82.48 80.775 82.53 80.86 82.625C80.945 82.72 80.985 82.84 80.985 82.975V85.7C80.985 86.12 81.055 86.465 81.19 86.74C81.325 87.015 81.515 87.215 81.745 87.35C81.98 87.485 82.245 87.55 82.535 87.55C82.825 87.55 83.075 87.485 83.3 87.355C83.52 87.225 83.7 87.05 83.835 86.83C83.97 86.61 84.035 86.365 84.035 86.09H84.595C84.58 86.535 84.48 86.94 84.29 87.3C84.1 87.66 83.84 87.945 83.51 88.15C83.18 88.355 82.81 88.46 82.395 88.46H82.4ZM82.57 81.71C82.25 81.71 81.965 81.65 81.72 81.525C81.475 81.4 81.27 81.235 81.125 81.015C80.98 80.795 80.905 80.555 80.905 80.29C80.905 80.155 80.94 80.04 81.02 79.945C81.095 79.85 81.19 79.805 81.3 79.805C81.41 79.805 81.505 79.85 81.575 79.945C81.645 80.04 81.685 80.16 81.685 80.3C81.685 80.49 81.77 80.645 81.935 80.77C82.105 80.895 82.315 80.96 82.56 80.96C82.805 80.96 83.03 80.895 83.195 80.77C83.365 80.645 83.445 80.485 83.445 80.3C83.445 80.155 83.48 80.035 83.56 79.945C83.635 79.85 83.73 79.805 83.84 79.805C83.95 79.805 84.045 79.85 84.115 79.945C84.185 80.04 84.225 80.155 84.225 80.29C84.225 80.555 84.15 80.8 84.005 81.015C83.86 81.23 83.66 81.4 83.41 81.525C83.16 81.65 82.88 81.71 82.57 81.71ZM84.47 88.405C84.345 88.405 84.24 88.36 84.16 88.265C84.08 88.17 84.04 88.05 84.04 87.91V82.98C84.04 82.835 84.08 82.715 84.16 82.625C84.24 82.53 84.345 82.485 84.47 82.485C84.595 82.485 84.7 82.53 84.78 82.625C84.86 82.72 84.9 82.84 84.9 82.98V87.91C84.9 88.055 84.86 88.175 84.78 88.265C84.7 88.36 84.595 88.405 84.47 88.405Z" fill="white"/>
</g>
<defs>
<clipPath id="clip0_13_92">
<rect width="100" height="100" fill="white"/>
</clipPath>
</defs>
</svg>
