<svg width="45" height="45" viewBox="0 0 45 45" fill="none" xmlns="http://www.w3.org/2000/svg">
<path d="M40.3957 29.9068C40.8688 28.7498 41.2303 27.553 41.4693 26.338C41.563 25.8622 41.253 25.4007 40.7771 25.307C40.3023 25.2133 39.8399 25.5233 39.7465 25.9991C39.546 27.0181 39.2507 28.0241 38.8679 29.0005C37.9399 28.5758 36.922 28.3155 35.8508 28.2579C36.34 27.1053 36.6785 25.8907 36.8584 24.6489C36.865 24.6176 36.8694 24.5857 36.8722 24.5531C36.9632 23.8946 37.0109 23.2289 37.0109 22.5611C37.0109 20.5568 36.5941 18.5731 35.799 16.7449C36.8725 16.6934 37.8936 16.4393 38.825 16.0194C39.2198 17.0072 39.5264 18.032 39.7372 19.0771C39.821 19.4939 40.1873 19.7819 40.5969 19.7819C40.6546 19.7819 40.7129 19.7761 40.7713 19.7644C41.2468 19.6686 41.5544 19.2055 41.4586 18.73C41.2094 17.494 40.8379 16.2841 40.3552 15.1227C40.5035 15.0135 40.6477 14.8985 40.7881 14.7797C40.8266 14.7519 40.863 14.7213 40.8959 14.6877C42.6554 13.151 43.7695 10.8923 43.7695 8.37742C43.7695 3.75801 40.0129 0 35.3955 0C32.3623 0 29.7005 1.62186 28.2311 4.04434C26.3655 3.46035 24.424 3.16406 22.4485 3.16406C20.4819 3.16406 18.5446 3.45898 16.6783 4.03988C15.2085 1.62014 12.5481 0 9.51656 0C4.89922 0 1.14258 3.75801 1.14258 8.37742C1.14258 10.7721 2.15229 12.935 3.76831 14.4632C3.80814 14.5092 3.85311 14.5507 3.90255 14.5878C4.10751 14.7732 4.3214 14.9486 4.54388 15.1131C4.07421 16.245 3.71098 17.4154 3.46447 18.6033C3.36594 19.0781 3.67115 19.543 4.14597 19.6415C4.20605 19.6539 4.26613 19.6597 4.32518 19.6597C4.7327 19.6597 5.098 19.3747 5.18383 18.96C5.39154 17.9592 5.69023 16.9718 6.07269 16.0129C7.0031 16.4345 8.02345 16.6906 9.09668 16.7442C8.58822 17.9132 8.23563 19.1475 8.04749 20.4112C8.03856 20.4517 8.03238 20.4933 8.02929 20.5355C7.93556 21.2046 7.88647 21.8813 7.88647 22.5611C7.88647 24.5232 8.28472 26.4664 9.04449 28.2589C7.97436 28.3186 6.95744 28.5806 6.03081 29.0067C5.62775 27.9801 5.31979 26.9124 5.11517 25.8199C5.0259 25.3434 4.56619 25.0299 4.09035 25.1189C3.61347 25.2081 3.29967 25.6668 3.38894 26.1437C3.63201 27.4397 4.00726 28.7052 4.50405 29.9161C2.46437 31.4456 1.14258 33.8825 1.14258 36.6226C1.14258 39.0245 2.15847 41.1929 3.78239 42.7221C3.81432 42.7567 3.84865 42.789 3.88607 42.8185C5.37437 44.1733 7.35088 45 9.51656 45C11.5734 45 13.4589 44.254 14.9181 43.0187C14.9545 42.9912 14.9888 42.9617 15.0204 42.9294C15.6377 42.3894 16.176 41.7611 16.6141 41.0631C18.5006 41.6584 20.4596 41.9606 22.4485 41.9606C24.4449 41.9606 26.408 41.6571 28.2956 41.0593C28.6774 41.6684 29.1354 42.2246 29.6562 42.7159C29.6912 42.755 29.73 42.7911 29.7723 42.8237C31.2599 44.175 33.233 45 35.3955 45C37.452 45 39.3376 44.254 40.7967 43.019C40.8303 42.9936 40.863 42.9668 40.8928 42.937C42.6544 41.3999 43.7695 39.1391 43.7695 36.6226C43.7695 33.877 42.4422 31.4353 40.3957 29.9068ZM35.3955 14.9984C33.8712 14.9984 32.4667 14.4786 31.3467 13.609C32.0313 12.0881 33.5698 11.0667 35.2637 11.0667C37.0353 11.0667 38.6015 12.1485 39.2466 13.7566C38.161 14.537 36.8317 14.9984 35.3955 14.9984ZM33.2381 7.286C33.2381 6.16848 34.1465 5.25902 35.2637 5.25902C36.3805 5.25902 37.2893 6.16848 37.2893 7.286C37.2893 8.40248 36.3805 9.31057 35.2637 9.31057C34.1465 9.31057 33.2381 8.40248 33.2381 7.286ZM35.3955 1.7561C39.0447 1.7561 42.0134 4.72618 42.0134 8.37742C42.0134 9.9258 41.4779 11.3509 40.5842 12.4798C39.9865 11.3743 39.0619 10.4909 37.953 9.94057C38.6279 9.25735 39.0454 8.31974 39.0454 7.286C39.0454 5.19997 37.3487 3.50292 35.2637 3.50292C33.1784 3.50292 31.4817 5.19997 31.4817 7.286C31.4817 8.32317 31.9022 9.26422 32.5813 9.94812C31.5428 10.4672 30.6594 11.2775 30.0586 12.2861C29.2542 11.1899 28.778 9.83826 28.778 8.37708C28.778 4.72618 31.7464 1.7561 35.3955 1.7561ZM28.8659 13.6152C29.1042 13.9118 29.3627 14.1912 29.6384 14.4529C29.6847 14.5078 29.7379 14.5569 29.7977 14.5995C30.9018 15.5947 32.2699 16.3017 33.7843 16.5983C34.7474 18.4309 35.2544 20.4833 35.2544 22.5611C35.2544 22.9062 35.239 23.2508 35.2112 23.5938H26.8664C26.2728 23.5938 25.7897 23.1104 25.7897 22.5161C25.7897 21.9218 26.2728 21.4384 26.8664 21.4384H27.2797C28.8419 21.4384 30.1128 20.1671 30.1128 18.6047C30.1128 17.0422 28.8419 15.7709 27.2797 15.7709C26.6861 15.7709 26.2031 15.2871 26.2031 14.6932C26.2031 14.0989 26.6861 13.6152 27.2797 13.6152H28.8659ZM22.4485 4.92016C24.1644 4.92016 25.8519 5.16632 27.4775 5.65075C27.1826 6.50597 27.0219 7.42298 27.0219 8.37708C27.0219 8.49483 27.025 8.61191 27.0298 8.72864C25.5621 8.24146 24.0271 7.99496 22.4485 7.99496C20.8768 7.99496 19.3469 8.23975 17.8827 8.72349C17.8875 8.60847 17.8905 8.49346 17.8905 8.37708C17.8905 7.42126 17.7292 6.50253 17.4332 5.64629C19.0585 5.16495 20.7412 4.92016 22.4485 4.92016ZM4.17892 12.2855C3.37486 11.1892 2.89867 9.83826 2.89867 8.37742C2.89867 4.72618 5.86739 1.7561 9.51656 1.7561C13.1654 1.7561 16.1341 4.72618 16.1341 8.37742C16.1341 9.9258 15.5985 11.3509 14.7049 12.4798C14.1075 11.3743 13.1829 10.4909 12.074 9.94057C12.7486 9.25735 13.1661 8.31974 13.1661 7.286C13.1661 5.19997 11.4694 3.50292 9.38438 3.50292C7.29904 3.50292 5.60268 5.19997 5.60268 7.286C5.60268 8.32317 6.02291 9.26388 6.70166 9.94743C5.66242 10.4665 4.77905 11.2768 4.17892 12.2855ZM11.41 7.286C11.41 8.40248 10.5016 9.31057 9.38438 9.31057C8.26756 9.31057 7.35878 8.40248 7.35878 7.286C7.35878 6.16848 8.26756 5.25902 9.38438 5.25902C10.5016 5.25902 11.41 6.16848 11.41 7.286ZM5.46673 13.6086C6.14994 12.0881 7.68871 11.0667 9.38438 11.0667C11.1559 11.0667 12.7225 12.1485 13.3676 13.7566C12.2817 14.537 10.9523 14.9984 9.51656 14.9984C7.99187 14.9984 6.58699 14.4786 5.46673 13.6086ZM5.46638 41.8534C6.14925 40.3332 7.68837 39.3118 9.38438 39.3118C11.1566 39.3118 12.7232 40.394 13.368 42.0021C12.282 42.7825 10.9523 43.2439 9.51656 43.2439C7.99152 43.2439 6.58665 42.7238 5.46638 41.8534ZM7.35878 35.5315C7.35878 34.4136 8.26756 33.5045 9.38438 33.5045C10.5016 33.5045 11.41 34.414 11.41 35.5315C11.41 36.6476 10.5016 37.5561 9.38438 37.5561C8.26756 37.5561 7.35878 36.6476 7.35878 35.5315ZM14.7052 40.7253C14.1078 39.6198 13.1833 38.7361 12.0743 38.1857C12.7489 37.5025 13.1661 36.5649 13.1661 35.5315C13.1661 33.4455 11.4697 31.7484 9.38438 31.7484C7.29939 31.7484 5.60268 33.4455 5.60268 35.5315C5.60268 36.5683 6.02257 37.509 6.70132 38.1929C5.66208 38.7117 4.77837 39.5216 4.17824 40.5299C3.37486 39.4341 2.89867 38.0831 2.89867 36.6226C2.89867 32.9717 5.86739 30.0013 9.51656 30.0013C13.1654 30.0013 16.1341 32.9717 16.1341 36.6226C16.1341 38.1713 15.5985 39.5961 14.7052 40.7253ZM16.1042 31.4569C14.8686 29.8828 13.082 28.7612 11.0378 28.3842C10.1239 26.5921 9.64256 24.5881 9.64256 22.5611C9.64256 22.1996 9.65939 21.8394 9.6896 21.4807H17.976C18.5696 21.4807 19.0527 21.9641 19.0527 22.5584C19.0527 23.1527 18.5696 23.6361 17.976 23.6361H17.5651C16.003 23.6361 14.732 24.9074 14.732 26.4702C14.732 28.0326 16.003 29.304 17.5651 29.304C18.1587 29.304 18.6417 29.7863 18.6417 30.3793C18.6417 30.9735 18.1587 31.4569 17.5651 31.4569H16.1042ZM22.4485 40.2045C20.7278 40.2045 19.0318 39.9556 17.3938 39.4653C17.7148 38.5775 17.8902 37.6203 17.8902 36.6226C17.8902 36.5488 17.8892 36.475 17.8875 36.4015C19.349 36.8849 20.8775 37.1297 22.4485 37.1297C24.0206 37.1297 25.5542 36.8828 27.025 36.395C27.0229 36.4708 27.0216 36.5467 27.0216 36.6229C27.0216 37.6189 27.1967 38.5747 27.517 39.4615C25.8773 39.9542 24.1768 40.2045 22.4485 40.2045ZM27.3178 34.414C25.7712 35.0505 24.1356 35.3736 22.4485 35.3736C20.7611 35.3736 19.131 35.0529 17.5963 34.4212C17.4827 34.0047 17.3381 33.601 17.1648 33.213H17.5651C19.1272 33.213 20.3982 31.9417 20.3982 30.3793C20.3982 28.8182 19.1272 27.5479 17.5651 27.5479C16.9711 27.5479 16.4881 27.0645 16.4881 26.4702C16.4881 25.8759 16.9711 25.3925 17.5651 25.3925H17.976C19.5382 25.3925 20.8088 24.1212 20.8088 22.5587C20.8088 20.9962 19.5382 19.7249 17.976 19.7249H9.95979C10.2053 18.639 10.5908 17.5877 11.1092 16.6021C12.5416 16.325 13.8445 15.6816 14.9174 14.7739C14.951 14.7485 14.9836 14.7213 15.0135 14.6915C16.2066 13.6505 17.103 12.2772 17.5572 10.7175C19.1052 10.0765 20.7484 9.75105 22.4485 9.75105C24.1565 9.75105 25.8055 10.0789 27.357 10.7251C27.471 11.1158 27.6128 11.4944 27.78 11.8594H27.2797C25.7176 11.8594 24.4466 13.1304 24.4466 14.6932C24.4466 16.2556 25.7176 17.527 27.2797 17.527C27.8733 17.527 28.3564 18.0104 28.3564 18.6047C28.3564 19.199 27.8733 19.6824 27.2797 19.6824H26.8664C25.3043 19.6824 24.0333 20.9537 24.0333 22.5161C24.0333 24.0786 25.3043 25.3499 26.8664 25.3499H34.9472C34.7127 26.4043 34.3457 27.4267 33.854 28.388C30.6958 28.9785 28.1562 31.3481 27.3178 34.414ZM31.3461 41.8538C32.0303 40.3336 33.5694 39.3118 35.2637 39.3118C37.0356 39.3118 38.6022 40.394 39.2469 42.0021C38.161 42.7825 36.8317 43.2439 35.3955 43.2439C33.8708 43.2439 32.4663 42.7241 31.3461 41.8538ZM33.2381 35.5315C33.2381 34.4136 34.1465 33.5045 35.2637 33.5045C36.3805 33.5045 37.2893 34.414 37.2893 35.5315C37.2893 36.6476 36.3805 37.5561 35.2637 37.5561C34.1465 37.5561 33.2381 36.6476 33.2381 35.5315ZM40.5842 40.7253C39.9868 39.6198 39.0622 38.7361 37.9533 38.1857C38.6279 37.5025 39.0454 36.5649 39.0454 35.5315C39.0454 33.4455 37.3487 31.7484 35.2637 31.7484C33.1784 31.7484 31.4817 33.4455 31.4817 35.5315C31.4817 36.5687 31.9022 37.5097 32.581 38.1933C31.5424 38.7124 30.6587 39.5223 30.0583 40.531C29.2542 39.4347 28.778 38.0834 28.778 36.6226C28.778 32.9717 31.7464 30.0016 35.3955 30.0016C39.0447 30.0016 42.0134 32.9717 42.0134 36.6226C42.0134 38.1713 41.4779 39.5961 40.5842 40.7253Z" fill="white"/>
<path d="M40.0809 22.5611V22.5786C40.0809 23.0634 40.474 23.4565 40.9591 23.4565C41.4439 23.4565 41.837 23.0634 41.837 22.5786V22.5611C41.837 22.076 41.4439 21.6829 40.9591 21.6829C40.474 21.6829 40.0809 22.076 40.0809 22.5611Z" fill="white"/>
<path d="M4.8165 22.5611V22.546C4.8165 22.0612 4.42305 21.6681 3.93828 21.6681C3.45316 21.6681 3.06006 22.0612 3.06006 22.546V22.5611C3.06006 23.0458 3.45316 23.4389 3.93828 23.4389C4.42305 23.4389 4.8165 23.0458 4.8165 22.5611Z" fill="white"/>
</svg>
