<svg width="30" height="30" viewBox="0 0 30 30" fill="none" xmlns="http://www.w3.org/2000/svg">
<path d="M9.08454 14.2938V11.8986H19.5969C19.8732 11.8986 20.0736 11.9224 20.2071 11.9532C20.2518 11.9635 20.2836 11.9734 20.3047 11.9809L20.3072 11.9878C20.3267 12.0425 20.3514 12.1508 20.3514 12.3297V13.8625C20.3514 14.0556 20.3266 14.1709 20.3066 14.2297C20.2883 14.2348 20.2642 14.2408 20.2337 14.2469C20.0954 14.2746 19.8883 14.2938 19.5969 14.2938H9.08454Z" fill="white"/>
<path fill-rule="evenodd" clip-rule="evenodd" d="M4.37501 24.2567V7.875H20.3583C21.33 7.875 22.0812 7.97656 22.6525 8.13611C23.187 8.31124 23.6223 8.56494 24.0197 8.92447C24.3957 9.31596 24.6465 9.73235 24.7938 10.2017C24.9541 10.7127 25.061 11.4327 25.061 12.4119V13.7805C25.061 15.4613 24.7557 16.525 24.3198 17.1021C23.895 17.6642 23.1418 18.1048 21.8782 18.3009C21.5518 18.3516 21.2761 18.5704 21.1525 18.8769C21.029 19.1833 21.0759 19.5321 21.276 19.795L24.671 24.2567H21.7798L17.9419 18.7206C17.7667 18.4679 17.4788 18.3172 17.1714 18.3172H8.14704C7.62928 18.3172 7.20954 18.7369 7.20954 19.2547V24.2567H4.37501ZM8.14704 10.0236C7.62928 10.0236 7.20954 10.4433 7.20954 10.9611V15.2313C7.20954 15.749 7.62928 16.1688 8.14704 16.1688H19.5969C19.9541 16.1688 20.2968 16.1466 20.6027 16.0852C20.858 16.034 21.1548 15.9426 21.4163 15.7588C21.4547 15.7319 21.4923 15.7029 21.529 15.6718C22.0551 15.2251 22.2264 14.5382 22.2264 13.8625V12.3297C22.2264 11.6715 22.0503 10.9903 21.5293 10.5478C21.2588 10.3179 20.9291 10.1956 20.6291 10.1263C20.3184 10.0545 19.969 10.0236 19.5969 10.0236H8.14704Z" fill="white"/>
<path fill-rule="evenodd" clip-rule="evenodd" d="M3.9 0C1.74609 0 0 1.74609 0 3.9V26.1C0 28.2539 1.74609 30 3.9 30H26.1C28.2539 30 30 28.2539 30 26.1V3.9C30 1.74609 28.2539 0 26.1 0H3.9ZM27.625 4.5625C27.625 5.42547 26.9253 6.125 26.0628 6.125C25.1997 6.125 24.5 5.42547 24.5 4.5625C24.5 3.69953 25.1997 3 26.0628 3C26.9253 3 27.625 3.69953 27.625 4.5625ZM3.43751 6C2.91975 6 2.50001 6.41973 2.50001 6.9375V25.1942C2.50001 25.712 2.91975 26.1317 3.43751 26.1317H8.14704C8.66481 26.1317 9.08454 25.712 9.08454 25.1942V20.1922H16.6806L20.5185 25.7283C20.6936 25.981 20.9815 26.1317 21.2889 26.1317H26.5624C26.9186 26.1317 27.2441 25.9298 27.4023 25.6106C27.5606 25.2914 27.5242 24.91 27.3084 24.6265L23.6259 19.787C24.5246 19.4577 25.2724 18.9515 25.8159 18.2323C26.6205 17.1672 26.936 15.603 26.936 13.7805V12.4119C26.936 11.3108 26.8175 10.3885 26.5828 9.64046C26.3375 8.85849 25.9172 8.18583 25.3449 7.59761C25.3324 7.58481 25.3196 7.57237 25.3064 7.5603C24.6979 7.00249 24.0158 6.60636 23.213 6.34674C23.202 6.34318 23.191 6.33983 23.1798 6.33668C22.3994 6.11581 21.4636 6 20.3583 6H3.43751Z" fill="white"/>
</svg>
