<svg width="30" height="30" viewBox="0 0 30 30" fill="none" xmlns="http://www.w3.org/2000/svg">
<path fill-rule="evenodd" clip-rule="evenodd" d="M3.9 0C1.74609 0 0 1.74609 0 3.9V26.1C0 28.2539 1.74609 30 3.9 30H26.1C28.2539 30 30 28.2539 30 26.1V3.9C30 1.74609 28.2539 0 26.1 0H3.9ZM25.3724 6.63824L21.8476 23.5923C21.7646 23.9926 21.2953 24.1739 20.9641 23.9333L16.1525 20.44C15.8604 20.2279 15.4621 20.2392 15.1825 20.4672L12.5148 22.6418C12.2053 22.8949 11.7387 22.7538 11.6202 22.3726L10.3359 18.2422C9.97755 17.0899 9.10598 16.1683 7.9754 15.7464L4.98211 14.6293C4.49598 14.4471 4.49182 13.7608 4.97657 13.5741L24.6171 5.9973C25.0335 5.83629 25.4631 6.20103 25.3724 6.63824Z" fill="white"/>
<path fill-rule="evenodd" clip-rule="evenodd" d="M20.6748 9.70406L11.3218 15.4645C10.9633 15.6857 10.7945 16.1187 10.9102 16.524L11.9214 20.0772C11.9934 20.3289 12.3586 20.3032 12.3936 20.0431L12.6565 18.0946C12.7061 17.7277 12.881 17.3895 13.1524 17.1371L20.8713 9.962C21.0158 9.82815 20.8428 9.60088 20.6748 9.70406Z" fill="white"/>
</svg>
