<svg width="45" height="45" viewBox="0 0 45 45" fill="none" xmlns="http://www.w3.org/2000/svg">
<g clip-path="url(#clip0_43_171)">
<path d="M42.6642 21.8181H37.3213L38.6777 15.8063C38.7603 15.8098 38.8429 15.8272 38.9254 15.8272C42.1156 15.8527 44.7727 13.3844 44.9863 10.1973C45.1998 7.01026 42.8955 4.20892 39.7304 3.80749C36.5654 3.40605 33.6365 5.54402 33.0499 8.68367L33.0461 8.7032C32.6113 10.9898 33.5355 13.322 35.4172 14.6885L33.525 18.6732C32.7709 14.4775 29.1596 11.4006 24.9025 11.3263H24.7004C22.8664 11.3124 21.0745 11.877 19.5794 12.9408C19.1663 12.6513 18.7319 12.3929 18.2801 12.1686C18.9799 10.9831 19.2767 9.60269 19.1252 8.23411C19.1415 8.23027 19.1572 8.22922 19.1736 8.22504C20.8749 7.82255 22.0711 6.29423 22.0551 4.54409C22.0391 2.79396 20.815 1.28796 19.1067 0.916862C17.3981 0.54542 15.6609 1.40793 14.9213 2.9938C11.7977 1.81181 8.2697 2.66247 6.02636 5.13875C4.73505 4.14091 2.94665 4.09732 1.60796 5.03028C0.269619 5.9636 -0.309678 7.65828 0.177307 9.21695C0.664293 10.7756 2.1047 11.838 3.73565 11.8411C4.03348 11.8408 4.33027 11.8052 4.6194 11.7354C4.63577 11.7312 4.64935 11.725 4.66573 11.7211C5.15376 13.0081 6.04552 14.1022 7.20725 14.8385C6.87563 15.2866 6.58127 15.7613 6.32629 16.2573C3.6193 15.468 1.15198 16.0693 0.433341 17.7643C-0.105548 19.0412 0.478974 20.5786 1.8518 21.8579C0.782034 22.0486 0.00243842 22.9785 0 24.0663V36.0571C0.00522517 40.6075 3.68827 44.2954 8.23347 44.3003H36.6762C41.2214 44.2954 44.9044 40.6075 44.9096 36.0571V24.0663C44.9082 22.825 43.904 21.8195 42.6642 21.8181ZM36.9576 5.78468C38.4896 5.03831 40.3115 5.22525 41.6603 6.26668C43.0094 7.30846 43.6528 9.02512 43.3212 10.6978L42.9896 10.7847C42.6969 10.8618 42.3869 10.7543 42.2044 10.513L41.7798 9.95321C41.2322 9.22985 40.3028 8.90759 39.4253 9.13743L38.7457 9.3146C38.4531 9.39168 38.143 9.28426 37.9605 9.04291L37.5345 8.48243C36.9869 7.75978 36.0589 7.43786 35.1821 7.66665L34.9682 7.72246C35.4075 6.88017 36.1049 6.20111 36.9576 5.78468ZM34.4541 9.40424L35.5587 9.1172C35.8509 9.04047 36.161 9.14789 36.3431 9.38959L36.7692 9.95007C37.3168 10.6738 38.2458 10.9953 39.1229 10.7655L39.8025 10.588C40.0952 10.5098 40.4059 10.6176 40.5877 10.86L41.013 11.4201C41.4081 11.9377 42.0097 12.2565 42.6597 12.2924C41.5443 14.0206 39.3922 14.7586 37.4526 14.0785C35.4974 13.3977 34.2593 11.4679 34.4541 9.40424ZM36.9628 15.4945C37.0405 15.5214 37.121 15.5315 37.1994 15.5552L35.7861 21.8181H33.6898L36.7361 15.4031C36.812 15.4331 36.8848 15.4676 36.9628 15.4945ZM24.7077 18.4256L24.7314 18.4179L24.7387 18.4155C26.7696 17.6429 29.1989 17.6932 31.9557 18.5497C32.233 19.6187 32.2595 20.7372 32.0331 21.8181H20.6467C21.3622 20.7128 22.308 19.7757 23.4189 19.0705C23.8257 18.812 24.2573 18.5961 24.7077 18.4256ZM21.2605 13.6617C22.3233 13.1096 23.5032 12.8229 24.7004 12.825H24.892C27.5972 12.8892 30.0552 14.4168 31.3134 16.8153C28.9683 16.146 26.4735 16.2196 24.172 17.0267L24.1528 17.035L24.1417 17.0399C23.6115 17.2425 23.1026 17.4975 22.6229 17.8013C21.0585 18.8019 19.7734 20.1841 18.8886 21.8181H17.3841C17.2765 21.3256 17.2201 20.8234 17.2155 20.3191C17.2086 18.0283 18.256 15.8621 20.0552 14.4468C20.4287 14.1441 20.8327 13.8811 21.2605 13.6617ZM6.57675 21.8181C6.5346 20.3278 6.81501 18.8459 7.39884 17.4741C7.70294 16.7794 8.09448 16.1265 8.56405 15.5315C9.45407 15.8712 10.3984 16.0445 11.3508 16.0428C12.0071 16.0417 12.6609 15.9633 13.2991 15.8087C14.8729 15.4383 16.2973 14.5982 17.3838 13.3991C17.7255 13.5564 18.0564 13.7367 18.3741 13.9386C16.2963 15.9939 15.3529 18.9358 15.8476 21.8181H6.57675ZM17.7708 2.3967C18.5528 2.20313 19.3784 2.44379 19.9344 3.02694C20.4903 3.61043 20.6917 4.44714 20.4621 5.22036C20.2322 5.99324 19.6069 6.58371 18.8228 6.76787C18.8057 6.77205 18.7908 6.7731 18.7744 6.77659C18.2891 5.49868 17.4054 4.41156 16.2541 3.676C16.5314 3.03496 17.0929 2.56132 17.7708 2.3967ZM2.57148 10.0108C1.85424 9.57618 1.43901 8.77714 1.49579 7.93939C1.55257 7.10199 2.07126 6.36608 2.84075 6.03231C3.60989 5.69853 4.50096 5.82304 5.14993 6.35422C4.4602 7.53272 4.16759 8.90235 4.31599 10.2601C4.29857 10.265 4.28673 10.2737 4.26861 10.2783C3.69001 10.4195 3.07902 10.3229 2.57148 10.0108ZM5.90026 10.6553C5.58292 9.2731 5.87936 7.82116 6.71295 6.67474C7.62248 5.39859 8.96778 4.5005 10.4942 4.15138C11.0171 4.02442 11.5532 3.96025 12.0914 3.95955C13.1075 3.95432 14.1093 4.19986 15.0081 4.67454C16.2715 5.31523 17.1957 6.47246 17.5423 7.84732H17.543C17.8596 9.22985 17.5628 10.6818 16.7292 11.8282C15.8201 13.1047 14.4744 14.0025 12.948 14.3519C11.4302 14.7366 9.82436 14.5507 8.43482 13.8288C7.17102 13.1881 6.24651 12.0305 5.90026 10.6556V10.6553ZM1.81139 18.3492C2.15765 17.5345 3.75376 17.1271 5.72469 17.6492C5.25896 18.9885 5.03428 20.4 5.0611 21.8181H4.38844C2.34854 20.7359 1.45643 19.1904 1.81139 18.3492ZM2.24543 23.3168H32.6169L32.6193 23.3171L32.6218 23.3168H42.6642C43.0773 23.3171 43.4124 23.6526 43.4128 24.0663V24.8158H1.49684V24.0663C1.49753 23.6526 1.83229 23.3171 2.24543 23.3168ZM43.4128 27.8135H1.49684V26.3145H43.4128V27.8135ZM36.6762 42.8016H8.23347C4.51455 42.7974 1.50102 39.7802 1.49684 36.0571V29.3122H43.4128V36.0571C43.4086 39.7802 40.3951 42.7974 36.6762 42.8016Z" fill="white"/>
<path d="M11.1683 10.1552C11.2648 10.558 11.6689 10.806 12.0709 10.7094C12.4732 10.6128 12.7209 10.2082 12.6244 9.8054L12.4495 9.07681C12.3871 8.81663 12.1907 8.60911 11.9343 8.53308C11.6779 8.45705 11.4003 8.52366 11.2063 8.70816C11.0122 8.89231 10.9311 9.16645 10.9934 9.42663L11.1683 10.1552Z" fill="white"/>
<path d="M9.36281 9.0496C9.7648 8.95264 10.0121 8.54806 9.91528 8.14558C9.81844 7.74344 9.41437 7.49582 9.01238 7.59243C8.61039 7.68938 8.36306 8.09431 8.4599 8.49644C8.50658 8.68966 8.6278 8.85673 8.7971 8.96031C8.96639 9.06424 9.16983 9.09633 9.36281 9.0496Z" fill="white"/>
<path d="M13.7289 7.99665C14.0233 7.9255 14.2459 7.68415 14.2929 7.38455C14.3403 7.08531 14.2023 6.78676 13.9442 6.62876C13.6861 6.47042 13.358 6.48367 13.1131 6.66225C12.8685 6.84047 12.755 7.14878 12.826 7.4435C12.9229 7.84598 13.3269 8.09361 13.7289 7.99665Z" fill="white"/>
<path d="M27.0591 34.2543L24.351 33.8403L23.1325 31.242C23.0092 30.979 22.7452 30.8109 22.455 30.8109C22.1645 30.8109 21.9004 30.979 21.7771 31.242L20.5586 33.8403L17.8506 34.2543C17.5733 34.2969 17.343 34.4912 17.2539 34.7576C17.165 35.0237 17.2323 35.3177 17.428 35.5186L19.4098 37.552L18.9405 40.4328C18.8942 40.716 19.0137 41.0006 19.2481 41.166C19.4826 41.3313 19.7905 41.348 20.0413 41.2092L22.455 39.8738L24.8683 41.2092C25.1195 41.348 25.4274 41.3313 25.6615 41.166C25.8959 41.0006 26.0154 40.716 25.9694 40.4328L25.4999 37.552L27.4816 35.5186C27.6777 35.3177 27.7449 35.0237 27.6558 34.7576C27.5669 34.4912 27.3363 34.2969 27.0591 34.2543ZM24.1647 36.7763C23.9985 36.9465 23.9233 37.1858 23.9612 37.4205L24.2434 39.1508L22.8166 38.3615C22.5915 38.2366 22.3181 38.2366 22.0931 38.3615L20.6659 39.1508L20.948 37.4205C20.986 37.1858 20.9108 36.9465 20.745 36.7763L19.5167 35.5162L21.1797 35.2619C21.4263 35.2239 21.6381 35.0652 21.744 34.8392L22.455 33.3238L23.1653 34.8392C23.2715 35.0652 23.4829 35.2239 23.7296 35.2619L25.3926 35.5162L24.1647 36.7763Z" fill="white"/>
<path d="M15.0833 34.2543L12.3749 33.8403L11.1564 31.242C11.0331 30.979 10.7691 30.8109 10.4789 30.8109C10.1887 30.8109 9.92468 30.979 9.80137 31.242L8.58286 33.8403L5.87448 34.2543C5.5972 34.2969 5.36694 34.4912 5.27811 34.7576C5.18894 35.0237 5.25617 35.3177 5.45229 35.5186L7.43367 37.552L6.96445 40.4328C6.91847 40.716 7.03795 41.0006 7.27204 41.166C7.50648 41.3313 7.81441 41.348 8.06522 41.2092L10.4789 39.8738L12.8926 41.2092C13.1434 41.348 13.4513 41.3313 13.6858 41.166C13.9198 41.0006 14.0393 40.716 13.9933 40.4328L13.5241 37.552L15.5055 35.5186C15.7016 35.3177 15.7689 35.0237 15.68 34.7576C15.5909 34.4912 15.3606 34.2969 15.0833 34.2543ZM12.1886 36.7763C12.0228 36.9465 11.9472 37.1858 11.9855 37.4205L12.2676 39.1508L10.8408 38.3615C10.6158 38.2366 10.3423 38.2366 10.117 38.3615L8.69015 39.1508L8.97231 37.4205C9.01028 37.1858 8.93469 36.9465 8.76888 36.7763L7.54096 35.5162L9.20396 35.2619C9.45059 35.2239 9.66203 35.0652 9.76828 34.8392L10.4789 33.3238L11.1895 34.8392C11.2954 35.0652 11.5069 35.2239 11.7538 35.2619L13.4165 35.5162L12.1886 36.7763Z" fill="white"/>
<path d="M39.0352 34.2543L36.3268 33.8403L35.1083 31.242C34.985 30.979 34.7209 30.8109 34.4307 30.8109C34.1406 30.8109 33.8765 30.979 33.7532 31.242L32.5347 33.8403L29.8267 34.2543C29.549 34.2969 29.3188 34.4912 29.23 34.7576C29.1408 35.0237 29.208 35.3177 29.4041 35.5186L31.3855 37.552L30.9163 40.4328C30.8703 40.716 30.9898 41.0006 31.2242 41.166C31.4583 41.3313 31.7663 41.348 32.0171 41.2092L34.4307 39.8738L36.8444 41.2092C37.0952 41.348 37.4032 41.3313 37.6376 41.166C37.8717 41.0006 37.9912 40.716 37.9452 40.4328L37.476 37.552L39.4577 35.5186C39.6535 35.3177 39.7207 35.0237 39.6319 34.7576C39.5427 34.4912 39.3124 34.2969 39.0352 34.2543ZM36.1404 36.7763C35.9746 36.9465 35.899 37.1858 35.9373 37.4205L36.2195 39.1508L34.7927 38.3615C34.5676 38.2366 34.2942 38.2366 34.0688 38.3615L32.642 39.1508L32.9242 37.4205C32.9621 37.1858 32.8869 36.9465 32.7207 36.7763L31.4928 35.5162L33.1558 35.2619C33.4024 35.2239 33.6139 35.0652 33.7201 34.8392L34.4307 33.3238L35.1414 34.8392C35.2473 35.0652 35.4591 35.2239 35.7057 35.2619L37.3683 35.5162L36.1404 36.7763Z" fill="white"/>
</g>
<defs>
<clipPath id="clip0_43_171">
<rect width="45" height="45" fill="white"/>
</clipPath>
</defs>
</svg>
